<svg width="1153" height="580" xmlns="http://www.w3.org/2000/svg"><defs><linearGradient x1="50%" y1="24.013%" x2="50%" y2="100%" id="a"><stop stop-color="#44A4E0" offset=".078%"/><stop stop-color="#3783C6" offset="54.467%"/><stop stop-color="#2455A2" offset="100%"/></linearGradient><linearGradient x1="50%" y1="0%" x2="50%" y2="100%" id="b"><stop stop-color="#3B8DC7" offset="0%"/><stop stop-color="#2C72B7" offset="100%"/></linearGradient><linearGradient x1="96.556%" y1="50%" x2="0%" y2="50%" id="c"><stop stop-color="#6FBCDC" offset="0%"/><stop stop-color="#327DBE" offset="100%"/></linearGradient></defs><g fill="none" fill-rule="evenodd"><path d="M811 580c168.329-260.616 269.135-453.95 302.419-580h38.364l.24 580H811z" fill="url(#a)"/><path d="M975 0c75.732 98.9 134.728 196.51 176.986 292.83V0H975z" fill="#87DCFF" opacity=".5"/><path d="M1151.783 0l.12 292.643c-23.542-53.635-52.274-107.67-86.196-162.105 21.895-49.484 37.798-92.995 47.712-130.538h38.364z" fill="url(#b)"/><path d="M577.018 0c-13.22 66.418-17.804 143.427-13.751 231.025C567.32 318.624 601.698 434.95 666.4 580H0V0h577.018z" fill="url(#c)"/></g></svg>